<svg xmlns="http://www.w3.org/2000/svg" width="247" height="219" viewBox="0 0 247 219">
  <g fill="none" fill-rule="evenodd">
    <g transform="translate(28 19)">
      <circle cx="100" cy="100" r="100" fill="#ECEEFB"/>
      <circle cx="100.467" cy="100.467" r="82.71" fill="#D8DDFE"/>
    </g>
    <rect width="5" height="92" y="98" fill="#415BE3"/>
    <g transform="translate(10 38)">
      <path fill="#ACBBFF" d="M19,60 L154,60 L154,152 L77.462069,152 C66.0379421,152 54.7827696,152 43.6965517,152 C32.4696706,152 17.9041534,152 0,152 L0,79 C-1.28507213e-15,68.5065898 8.50658975,60 19,60 Z" transform="rotate(-180 77 106)"/>
      <circle cx="82" cy="106" r="30" stroke="#415BE3" stroke-linecap="square" stroke-width="6"/>
      <polygon fill="#FFF" points="129 99 154 99 154 138 129 138"/>
      <path fill="#415BE3" d="M100.984863,-1.05160325e-12 L226.5,-1.06048503e-12 C232.022847,-1.06149956e-12 236.5,4.4771525 236.5,10 L236.5,82 C236.5,87.5228475 232.022847,92 226.5,92 L154,92 C141.916667,92 129.833333,92 117.75,92 C105.666667,92 93.4116211,97.376947 80.9848633,108.130841 L80.9848633,20 C80.9848633,8.954305 89.9391683,-1.04957419e-12 100.984863,-1.05160325e-12 Z"/>
      <g fill="#FFF" transform="translate(159 23)">
        <rect width="41" height="8"/>
        <rect width="31" height="6" y="16"/>
      </g>
      <g transform="translate(103 21)">
        <rect width="21" height="21" x="10" fill="#FFF" rx="10.5"/>
        <path fill="#FFF" d="M12.2750278,26 L28.7249722,26 C33.5262995,26 37.6499714,29.4123499 38.5483579,34.1288789 L41,47 L0,47 L2.45164211,34.1288789 C3.35002859,29.4123499 7.47370046,26 12.2750278,26 Z"/>
        <polygon fill="#415BE3" points="13 26 28 26 20.5 31"/>
      </g>
      <path fill="#FFF" d="M96,92 L154,92 L154,122 L96,122 C87.7157288,122 81,115.284271 81,107 L81,107 C81,98.7157288 87.7157288,92 96,92 Z"/>
      <path fill="#ACBBFF" d="M113,122 L138.5,122 C146.784271,122 153.5,128.715729 153.5,137 L153.5,137 C153.5,145.284271 146.784271,152 138.5,152 L133.25,152 C122.066234,152 113,142.933766 113,131.75 L113,122 Z"/>
    </g>
    <rect width="16" height="8" x="24" y="169" fill="#415BE3"/>
    <path fill="#415BE3" d="M50.2777693,73.5652174 C49.3054364,64.1238972 42.1926204,56.5034823 33,54.7646515 L33,54.0179572 C42.2630718,52.2658002 49.4143382,44.5415617 50.2990411,35 L50.4835676,35 C51.3751791,44.6160721 58.631608,52.3863271 68,54.0579106 L68,54.7246981 C58.7023083,56.3836667 51.4848234,64.0496045 50.5048394,73.5652174 L50.2777693,73.5652174 Z"/>
    <path fill="#ACBBFF" d="M60,9.91304348 C65.4748227,9.91304348 69.9130435,5.47482274 69.9130435,0 C69.9130435,5.19663529 73.9116922,9.45933614 79,9.87911297 L79,9.94697399 C73.9116922,10.3667508 69.9130435,14.6294517 69.9130435,19.826087 C69.9130435,20.1042744 69.9245024,20.3797855 69.946974,20.6521739 L69.879113,20.6521739 C69.9015846,20.3797855 69.9130435,20.1042744 69.9130435,19.826087 C69.9130435,14.3512642 65.4748227,9.91304348 60,9.91304348 Z"/>
    <path fill="#FFF" d="M127.902611,207 C126.983196,197.62776 119.671785,190.538569 111,190.029316 L111,189.970725 C119.947293,189.4464 127.4464,181.947293 127.970725,173 L128.029316,173 C128.538569,181.671785 135.62776,188.983196 145,189.902611 L145,190.097641 C135.925522,190.99133 128.99133,197.925522 128.097641,207 L127.902611,207 Z"/>
    <polygon fill="#415BE3" points="23 115 28 111 28 126 23 126"/>
    <circle cx="38.5" cy="118.5" r="7.5" fill="#415BE3"/>
  </g>
</svg>
